<svg xmlns="http://www.w3.org/2000/svg" version="1.1" xmlns:xlink="http://www.w3.org/1999/xlink" width="512" height="512" x="0" y="0" viewBox="0 0 370 370.688" style="enable-background:new 0 0 512 512" xml:space="preserve" class=""><g transform="matrix(0.81,0,0,0.81,32.45959948539729,35.21536178588866)"><path d="M332.582 353.23h-.156V138.805c0-.309 0-.617-.051-.922v-.156c-.05-.204-.05-.461-.102-.664a.96.96 0 0 0-.101-.36c-.05-.152-.05-.305-.102-.46-.05-.153-.105-.305-.156-.462-.05-.101-.05-.203-.101-.304-.051-.157-.153-.309-.204-.461-.05-.106-.105-.207-.156-.309-.101-.152-.152-.309-.254-.41-.05-.102-.101-.203-.156-.305-.102-.105-.152-.258-.254-.36-.101-.1-.152-.206-.258-.308-.101-.101-.152-.203-.254-.304-.101-.106-.207-.258-.308-.36-.051-.101-.153-.156-.254-.207a30.999 30.999 0 0 1-.36-.355c-.05-.055-.152-.106-.257-.207-.153-.102-.305-.203-.407-.305-.105-.055-.207-.106-.257-.156a4.663 4.663 0 0 0-.41-.254c-.153-.051-.254-.156-.41-.207-.102-.051-.255-.102-.356-.153-.207-.101-.41-.152-.617-.207-.051 0-.102-.05-.204-.05-.257-.102-.562-.153-.82-.204h-.05l-42.755-8.96V33.332c0-.309 0-.613-.05-.922 0-.05 0-.101-.051-.207-.05-.203-.05-.46-.102-.664-.05-.152-.05-.258-.101-.36-.051-.152-.051-.304-.102-.41-.05-.152-.105-.304-.156-.46-.05-.102-.05-.204-.102-.305-.05-.156-.152-.309-.203-.512a1.143 1.143 0 0 0-.156-.258c-.101-.152-.152-.304-.254-.46-.05-.102-.101-.204-.156-.254-.102-.106-.152-.258-.254-.36-.102-.101-.152-.203-.258-.308-.101-.102-.152-.204-.254-.305-.101-.106-.207-.207-.308-.36-.102-.101-.153-.152-.254-.207-.106-.101-.258-.253-.36-.355-.101-.05-.152-.102-.257-.207-.153-.102-.254-.203-.407-.305-.105-.05-.207-.105-.308-.156-.153-.102-.258-.152-.41-.254-.153-.05-.254-.156-.41-.207a2.361 2.361 0 0 0-.36-.152c-.203-.102-.46-.153-.664-.254-.05 0-.102-.055-.152-.055-.309-.101-.618-.152-.922-.254L157.785.101c-.258-.05-.512-.101-.719-.101h-1.894c-.203 0-.36.05-.563.102-.101 0-.203 0-.254.05h-.105L57.125 19.148c-.258.051-.46.102-.719.153-.05 0-.101 0-.152.054-.203.051-.41.153-.613.204-.051 0-.102.05-.207.05-.153.051-.305.153-.407.204-1.129.566-2.101 1.28-2.867 2.203 0 .05-.055.05-.055.101-.05.106-.101.156-.203.258a9.383 9.383 0 0 0-1.332 2.559c0 .05-.05.101-.05.101-.051.106-.051.207-.102.309-.05.152-.102.36-.152.511v.153c-.055.258-.106.46-.106.719v.101c0 .258-.05.512-.05.77v67.789l-33.844 6.656c-.254.05-.512.102-.766.203-.05 0-.05 0-.102.05-.257.052-.46.157-.718.259-.051 0-.102.05-.153.05-.156.051-.308.153-.46.204a9.739 9.739 0 0 0-2.715 2.05c-.051.051-.102.153-.204.204a1.06 1.06 0 0 0-.156.257 8.984 8.984 0 0 0-1.484 2.97c-.051.202-.102.355-.153.562v.101c-.05.258-.101.512-.101.77v.05c-.05.254-.05.563-.05.82v242.688h-.157c-4.813 0-8.703 3.89-8.703 8.703s3.89 8.704 8.703 8.704h323.586a8.696 8.696 0 0 0 8.703-8.704c-.05-4.863-3.941-8.754-8.754-8.754zM153.074 111.77c.664.257 1.434.41 2.149.46l159.797 33.536v29.082l-199.782-41.934v-29.082zM315.02 220.11l-199.782-41.934v-30.617l199.782 41.933zm0 14.644v30.309l-199.782-41.625V192.82zm-199.782 3.324 199.782 41.68v30.617L115.238 268.75zM315.02 325.02v28.21H115.238v-69.89zM164.645 96.41V19.3l100.71 21.044v77.21zm-97.23-61.644 79.823-15.618v73.625l-38.914-8.14c-.101 0-.254-.051-.36-.051-.1 0-.253-.05-.355-.05-.207-.052-.41-.052-.617-.052h-1.226c-.309.051-.668.051-.973.153l-37.379 7.324zm-40.856 82.941 32.562-6.398c.871-.051 1.742-.204 2.508-.512l36.2-7.117v29.183L39.202 145a7.189 7.189 0 0 0-5.578 8.445c.715 3.38 3.684 5.735 7.012 5.735.46 0 .972-.051 1.433-.153l55.707-11.52v30.618l-58.625 12.133a7.195 7.195 0 0 0-5.578 8.449c.715 3.379 3.684 5.734 7.012 5.734.46 0 .973-.05 1.434-.152l55.707-11.52v30.669L39.102 235.57a7.195 7.195 0 0 0-5.579 8.45c.715 3.378 3.684 5.734 7.012 5.734.461 0 .973-.05 1.434-.152l55.707-11.524V268.7L39.05 280.832a7.2 7.2 0 0 0-5.582 8.45c.718 3.378 3.687 5.734 7.015 5.734.461 0 .973-.051 1.434-.157l55.91-11.52v69.891h-71.27zm0 0" fill="#ffcb08" opacity="1" data-original="#000000" class=""></path><path d="M247.281 67.738 185.84 55.09a7.106 7.106 0 0 0-8.445 5.582 7.106 7.106 0 0 0 5.578 8.45l61.441 12.644c.512.101.973.156 1.434.156 3.328 0 6.297-2.356 7.015-5.734.817-3.844-1.691-7.63-5.582-8.45zm0 0" fill="#ffcb08" opacity="1" data-original="#000000" class=""></path></g></svg>