<svg xmlns="http://www.w3.org/2000/svg" version="1.1" xmlns:xlink="http://www.w3.org/1999/xlink" width="512" height="512" x="0" y="0" viewBox="0 0 48 48" style="enable-background:new 0 0 512 512" xml:space="preserve" class=""><g><path d="M40 44H8a1 1 0 0 1-1-.87l-4-30a1 1 0 1 1 2-.26L8.88 42h30.24L43 12.87a1 1 0 0 1 2 .26l-4 30a1 1 0 0 1-1 .87z" fill="#ffcb08" opacity="1" data-original="#000000" class=""></path><path d="M42.75 23h-.11A6.69 6.69 0 0 1 39 21.29 4.7 4.7 0 0 0 35.7 20h-.72a1 1 0 0 1-.22-2 6.86 6.86 0 0 1 .94 0 6.62 6.62 0 0 1 4.51 1.71A5 5 0 0 0 42.86 21a1 1 0 0 1 .88 1.1 1 1 0 0 1-.99.9zM24.56 21.92a1 1 0 1 1 1-1 1 1 0 0 1-1.01 1zM12.3 23a6.62 6.62 0 0 1-4.51-1.71 4.76 4.76 0 0 0-3-1.28 1 1 0 1 1 .1-2A6.67 6.67 0 0 1 9 19.71 4.7 4.7 0 0 0 12.3 21a4.09 4.09 0 0 0 2.31-.61 1 1 0 0 1 1 1.72 6.2 6.2 0 0 1-3.31.89z" fill="#ffcb08" opacity="1" data-original="#000000" class=""></path><path d="M21.57 33a2.93 2.93 0 0 1-1.6-.47 3.17 3.17 0 0 1-.81-.78 3.19 3.19 0 0 1-1.12.52 3 3 0 0 1-2.31-.39 3 3 0 0 1-1.26-1.71 3 3 0 0 1 .28-2.26l.17-.29a3.12 3.12 0 0 1-.95-.35 3 3 0 0 1-1.4-1.79 2.88 2.88 0 0 1 .28-2.26l5.84-10.12-3.26.83a4.85 4.85 0 0 1-1.39.25 3 3 0 0 1-2.9-2.2 2.85 2.85 0 0 1 .28-2.25 3.51 3.51 0 0 1 2-1.42l1.73-.68c1.65-.66 3.29-1.32 4.93-2 .87-.37 1.6-.64 2.28-.86a14.52 14.52 0 0 1 3-.69 9.81 9.81 0 0 1 6.43 1.47A11.46 11.46 0 0 1 36 10.34a10.06 10.06 0 0 1 .71 2.06 12.63 12.63 0 0 1 .29 1.77v.16a10.16 10.16 0 0 1-1.36 5.41l-5.59 9.66a3.1 3.1 0 0 1-2 1.46 2.94 2.94 0 0 1-2.32-.38 3.08 3.08 0 0 1-.63-.56l-.89 1.53a3.1 3.1 0 0 1-2 1.46 3.53 3.53 0 0 1-.64.09zm-.84-3.43a.88.88 0 0 0-.09.71 1.08 1.08 0 0 0 .43.58 1 1 0 0 0 .75.11 1.09 1.09 0 0 0 .7-.51l2.27-3.93a1 1 0 0 1 1.37-.36 1 1 0 0 1 .37 1.36.91.91 0 0 0-.09.72 1.05 1.05 0 0 0 .43.57.94.94 0 0 0 .75.12 1.09 1.09 0 0 0 .7-.52l5.58-9.66a8.18 8.18 0 0 0 1.1-4.34v-.12a11.08 11.08 0 0 0-.19-1.46 8.82 8.82 0 0 0-.57-1.66 9.43 9.43 0 0 0-3.48-3.95 7.78 7.78 0 0 0-5.13-1.18 13.46 13.46 0 0 0-2.63.61c-.63.2-1.31.46-2.13.81-1.65.68-3.3 1.34-5 2l-1.78.71c-.39.14-.88.32-1 .54a.86.86 0 0 0-.08.7 1 1 0 0 0 1 .75 3.26 3.26 0 0 0 .86-.17l.36-.1 5.24-1.33a1 1 0 0 1 1 .37A1 1 0 0 1 21.6 12l-7 12.17a.88.88 0 0 0-.09.71 1.07 1.07 0 0 0 .48.61 1 1 0 0 0 1.34-.32 1 1 0 1 1 1.73 1l-1.57 2.73a.91.91 0 0 0-.09.72 1 1 0 0 0 .43.58 1 1 0 0 0 .75.11 1.11 1.11 0 0 0 .7-.51l.72-1.24a1 1 0 0 1 1.36-.37 1 1 0 0 1 .37 1.37z" fill="#ffcb08" opacity="1" data-original="#000000" class=""></path><path d="M17.17 26.71a.89.89 0 0 1-.49-.14 1 1 0 0 1-.37-1.36l3.87-6.7a1 1 0 0 1 1.36-.37 1 1 0 0 1 .37 1.37L18 26.21a1 1 0 0 1-.83.5zM19.84 30.09a1 1 0 0 1-.5-.13 1 1 0 0 1-.34-1.37l5-8.78a1 1 0 0 1 1.74 1l-5.07 8.78a1 1 0 0 1-.83.5zM25.66 28a1 1 0 0 1-.87-1.5l3.12-5.39a1 1 0 1 1 1.73 1l-3.11 5.39a1 1 0 0 1-.87.5z" fill="#ffcb08" opacity="1" data-original="#000000" class=""></path></g></svg>